<?xml version="1.0" encoding="UTF-8"?>
<svg width="19px" height="18px" viewBox="0 0 19 18" version="1.1" xmlns="http://www.w3.org/2000/svg" xmlns:xlink="http://www.w3.org/1999/xlink">
    <title>发送</title>
    <g id="页面-1" stroke="none" stroke-width="1" fill="none" fill-rule="evenodd">
        <g id="初始页面" transform="translate(-1686.000000, -981.000000)">
            <g id="编组-8" transform="translate(532.000000, 954.000000)">
                <g id="Button/L/Black/text/normal备份" transform="translate(1144.000000, 16.000000)">
                    <g id="编组" transform="translate(8.000000, 8.000000)">
                        <rect id="矩形" x="0" y="0" width="24" height="24"></rect>
                        <path d="M20.4869302,3.37465324 L20.5015004,3.38859463 C20.5712965,3.42866884 20.637107,3.47833752 20.6970213,3.53761094 C20.9078827,3.74621692 21.0075035,4.03930578 20.9717877,4.32905782 L20.9481248,4.45277693 L17.4640466,17.807718 C17.296748,18.4489962 16.6412669,18.8332326 15.9999887,18.665934 L15.8889142,18.6311219 L15.781735,18.5857119 L10.02492,15.8094883 L10.02524,20.1420474 C10.02524,20.4964301 9.76189634,20.7893056 9.42022581,20.8356572 L9.32523996,20.8420474 C8.97085724,20.8420474 8.67798173,20.5787038 8.63163013,20.2370332 L8.62523996,20.1420474 L8.62523996,14.3891239 L16.848467,6.07676928 L3.98392001,11.7864883 L7.4568467,13.3063669 C7.77882058,13.4472664 7.94153617,13.8011964 7.85201397,14.130477 L7.8174972,14.228284 C7.67659765,14.5502579 7.32266763,14.7129735 6.99338706,14.6234513 L6.89558005,14.5889345 L3.00768119,12.8875444 C2.73314105,12.7674024 2.51348929,12.5488846 2.39192794,12.27497 C2.14101504,11.709587 2.36222062,11.0542722 2.88534122,10.7508367 L3.00199761,10.6913617 L19.7423311,3.26212147 C19.9993233,3.14807016 20.2881686,3.20123908 20.4869302,3.37465324 Z M19.16992,5.71948828 L10.49892,14.4834883 L16.16992,17.2184883 L19.16992,5.71948828 Z" id="形状结合" fill="#FFFFFF" fill-rule="nonzero"></path>
                    </g>
                </g>
            </g>
        </g>
    </g>
</svg>