<?xml version="1.0" encoding="UTF-8"?>
<svg width="48px" height="48px" viewBox="0 0 48 48" version="1.1" xmlns="http://www.w3.org/2000/svg" xmlns:xlink="http://www.w3.org/1999/xlink">
    <title>聊天框头像-AI</title>
    <defs>
        <linearGradient x1="100%" y1="50%" x2="0%" y2="50%" id="linearGradient-1">
            <stop stop-color="#7D78FF" offset="0%"></stop>
            <stop stop-color="#7D32EA" offset="100%"></stop>
        </linearGradient>
        <linearGradient x1="98.5592289%" y1="50.3206485%" x2="0%" y2="72.2553382%" id="linearGradient-2">
            <stop stop-color="#FFFFFF" offset="0%"></stop>
            <stop stop-color="#FFFFFF" stop-opacity="0.269551737" offset="100%"></stop>
        </linearGradient>
    </defs>
    <g id="页面-1" stroke="none" stroke-width="1" fill="none" fill-rule="evenodd">
        <g id="点击「场景」选项" transform="translate(-416.000000, -192.000000)">
            <g id="编组-13" transform="translate(416.000000, 80.000000)">
                <g id="聊天框头像-AI" transform="translate(0.000000, 112.000000)">
                    <circle id="椭圆形备份" fill="url(#linearGradient-1)" fill-rule="nonzero" cx="24" cy="24" r="24"></circle>
                    <g id="编组-13" transform="translate(8.000000, 6.000000)">
                        <rect id="矩形" x="0" y="0" width="32" height="32"></rect>
                        <g id="编组" transform="translate(1.500000, 3.500000)" fill="url(#linearGradient-2)" fill-rule="nonzero">
                            <path d="M14.8452381,0 C15.7036553,0 16.4730765,0.532673959 16.7797517,1.33904891 C17.0864268,2.14542387 16.8668061,3.05849046 16.2275714,3.63472223 L16.2261905,5.55555557 L21.4047619,5.55555557 C23.5984843,5.55543266 25.4120159,7.27524789 25.5407143,9.4777778 L25.547619,9.72222223 L25.547619,20.8333333 C25.547619,23.0396633 23.8377535,24.8636175 21.6478095,24.9930556 L21.4047619,25 L7.59523811,25 C5.4015157,25 3.5879841,23.2803077 3.45928571,21.0777778 L3.45238096,20.8333333 L3.45238096,9.72222223 C3.45238096,7.51589222 5.16224646,5.69193804 7.35219047,5.5625 L7.59523811,5.55555557 L13.4642857,5.55555557 L13.4642857,3.63611113 C12.8241747,3.06024868 12.6037712,2.14684575 12.9102224,1.33994556 C13.2166737,0.533045362 13.986413,0 14.8452381,0 Z M16.5714286,18.4444445 L12.4285714,18.4444445 C11.6979187,18.4450314 11.0943439,18.857655 11.0515243,19.3858393 C11.0087047,19.9140236 11.5414609,20.3749536 12.267,20.4374445 L12.4285714,20.4444445 L16.5714286,20.4444445 C17.3341075,20.4444445 17.952381,19.9967292 17.952381,19.4444445 C17.952381,18.8921597 17.3341075,18.4444445 16.5714286,18.4444445 Z M1.38095239,11.1111111 C2.08106048,11.111204 2.67032545,11.6382043 2.75223811,12.3375 L2.76190475,12.5 L2.76190475,18.0555556 C2.76109414,18.7904074 2.19128064,19.3974508 1.46188333,19.4405165 C0.732486027,19.4835822 0.0959637051,18.9477643 0.00966667746,18.2180556 L0,18.0555556 L0,12.5 C0,11.7329379 0.618273458,11.1111111 1.38095239,11.1111111 Z M27.6190476,11.1111111 C28.3191557,11.111204 28.9084207,11.6382043 28.9903333,12.3375 L29,12.5 L29,18.0555556 C28.9991895,18.7904075 28.429376,19.397451 27.6999786,19.4405167 C26.9705812,19.4835824 26.3340588,18.9477644 26.2477619,18.2180556 L26.2380952,18.0555556 L26.2380952,12.5 C26.2380952,11.7329379 26.8563687,11.1111111 27.6190476,11.1111111 Z M18,12 C17.4477153,12 17,12.4477153 17,13 L17,15 C17,15.5522847 17.4477153,16 18,16 C18.5522847,16 19,15.5522847 19,15 L19,13 C19,12.4477153 18.5522847,12 18,12 Z M11,12 C10.4477153,12 10,12.4477153 10,13 L10,15 C10,15.5522847 10.4477153,16 11,16 C11.5522847,16 12,15.5522847 12,15 L12,13 C12,12.4477153 11.5522847,12 11,12 Z" id="形状结合"></path>
                        </g>
                    </g>
                </g>
            </g>
        </g>
    </g>
</svg>